<?xml version="1.0" encoding="UTF-8"?>
<svg xmlns="http://www.w3.org/2000/svg" 
     xmlns:xlink="http://www.w3.org/1999/xlink"
     width="2800" height="2220" 
     viewBox="0 0 2800 2220">
  <defs>
    <radialGradient id="leafGradient">
      <stop offset="0%" style="stop-color:#22c55e;stop-opacity:1" />
      <stop offset="100%" style="stop-color:#16a34a;stop-opacity:0.8" />
    </radialGradient>
    <radialGradient id="mergeGradient">
      <stop offset="0%" style="stop-color:#a78bfa;stop-opacity:1" />
      <stop offset="100%" style="stop-color:#7c3aed;stop-opacity:0.8" />
    </radialGradient>
    <radialGradient id="forkGradient">
      <stop offset="0%" style="stop-color:#fb923c;stop-opacity:1" />
      <stop offset="100%" style="stop-color:#ea580c;stop-opacity:0.8" />
    </radialGradient>
    <radialGradient id="tagGradient">
      <stop offset="0%" style="stop-color:#38bdf8;stop-opacity:1" />
      <stop offset="100%" style="stop-color:#0284c7;stop-opacity:0.8" />
    </radialGradient>
    <style>
      .branch-line { stroke: #64748b; stroke-width: 2; fill: none; opacity: 0.7; }
      .trunk-line { stroke: #22c55e; stroke-width: 2.5; fill: none; opacity: 0.6; }
      .commit-leaf { cursor: pointer; }
      .commit-leaf:hover { filter: brightness(1.5); }
      .branch-label { font-family: sans-serif; font-size: 12px; font-weight: bold; fill: #0f172a; }
    </style>
  </defs>
  
  <rect width="2800" height="2220" fill="#f8fafc"/>
  <defs>
    <pattern id="grid" width="100" height="100" patternUnits="userSpaceOnUse">
      <path d="M 100 0 L 0 0 0 100" fill="none" stroke="#e2e8f0" stroke-width="0.5" opacity="0.3"/>
    </pattern>
  </defs>
  <rect width="2800" height="2220" fill="url(#grid)"/>
  
  <!-- Branch connection lines -->
  <g id="branches">
    <line class="trunk-line" x1="600" y1="60" x2="600" y2="100"/>
    <line class="trunk-line" x1="600" y1="100" x2="600" y2="140"/>
    <line class="trunk-line" x1="600" y1="140" x2="600" y2="1700"/>
    <path class="branch-line" d="M 720 180 C 720 212, 480 228, 480 260"/>
    <path class="branch-line" d="M 480 260 C 480 292, 840 308, 840 340"/>
    <path class="branch-line" d="M 840 340 C 840 372, 360 388, 360 420"/>
    <path class="branch-line" d="M 360 420 C 360 452, 960 468, 960 500"/>
    <path class="branch-line" d="M 960 500 C 960 532, 240 548, 240 580"/>
    <path class="branch-line" d="M 240 580 C 240 612, 1080 628, 1080 660"/>
    <path class="branch-line" d="M 1080 660 C 1080 692, 120 708, 120 740"/>
    <path class="branch-line" d="M 120 740 C 120 772, 1200 788, 1200 820"/>
    <path class="branch-line" d="M 1200 820 C 1200 852, 0 868, 0 900"/>
    <path class="branch-line" d="M 0 900 C 0 932, 1320 948, 1320 980"/>
    <path class="branch-line" d="M 1320 980 C 1320 1012, -120 1028, -120 1060"/>
    <path class="branch-line" d="M -120 1060 C -120 1092, 1440 1108, 1440 1140"/>
    <path class="branch-line" d="M 1440 1140 C 1440 1172, -240 1188, -240 1220"/>
    <path class="branch-line" d="M -240 1220 C -240 1252, 1560 1268, 1560 1300"/>
    <path class="branch-line" d="M 1560 1300 C 1560 1332, -360 1348, -360 1380"/>
    <path class="branch-line" d="M -360 1380 C -360 1412, 1680 1428, 1680 1460"/>
    <path class="branch-line" d="M 1680 1460 C 1680 1524, 1800 1556, 1800 1620"/>
    <path class="branch-line" d="M 1680 1460 C 1680 1492, -480 1508, -480 1540"/>
    <path class="branch-line" d="M -480 1540 C -480 1572, 1800 1588, 1800 1620"/>
    <path class="branch-line" d="M 1800 1620 C 1800 1652, 600 1668, 600 1700"/>
    <line class="trunk-line" x1="600" y1="1700" x2="600" y2="1740"/>
    <line class="trunk-line" x1="600" y1="1740" x2="600" y2="1780"/>
    <line class="trunk-line" x1="600" y1="1780" x2="600" y2="1820"/>
    <line class="trunk-line" x1="600" y1="1820" x2="600" y2="1940"/>
    <path class="branch-line" d="M 600 1820 C 600 1836, -600 1844, -600 1860"/>
    <path class="branch-line" d="M -600 1860 C -600 1892, 600 1908, 600 1940"/>
    <line class="trunk-line" x1="600" y1="1940" x2="600" y2="1980"/>
    <line class="trunk-line" x1="600" y1="1980" x2="600" y2="2020"/>
    <line class="trunk-line" x1="600" y1="2020" x2="600" y2="2060"/>
    <line class="trunk-line" x1="600" y1="2060" x2="600" y2="2100"/>
  </g>
  <!-- Commit nodes -->
  <g id="commits">
    <circle class="commit-leaf" cx="600" cy="60" r="6" fill="url(#leafGradient)" stroke="#16a34a" stroke-width="1.5"><title>9b8b8a5: chore: update git tree visualisation</title></circle>
    <circle class="commit-leaf" cx="600" cy="100" r="6" fill="url(#leafGradient)" stroke="#16a34a" stroke-width="1.5"><title>19b9cc8: chore: update git tree visualisation</title></circle>
    <circle class="commit-leaf" cx="600" cy="140" r="6" fill="url(#leafGradient)" stroke="#16a34a" stroke-width="1.5"><title>5607289: chore: update git tree visualisation</title></circle>
    <circle class="commit-leaf" cx="720" cy="180" r="6" fill="url(#tagGradient)" stroke="#0284c7" stroke-width="1.5"><title>e184fd2: chore: update CHANGELOG for v0.1.0 (re-release)</title></circle>
    <circle class="commit-leaf" cx="480" cy="260" r="6" fill="url(#leafGradient)" stroke="#16a34a" stroke-width="1.5"><title>f00c465: chore: update git tree visualisation</title></circle>
    <circle class="commit-leaf" cx="840" cy="340" r="6" fill="url(#leafGradient)" stroke="#16a34a" stroke-width="1.5"><title>92e8f07: chore: update git tree visualisation</title></circle>
    <circle class="commit-leaf" cx="360" cy="420" r="6" fill="url(#leafGradient)" stroke="#16a34a" stroke-width="1.5"><title>fb20f4d: chore: update git tree visualisation</title></circle>
    <circle class="commit-leaf" cx="960" cy="500" r="6" fill="url(#leafGradient)" stroke="#16a34a" stroke-width="1.5"><title>f6a6b4b: chore: update git tree visualisation</title></circle>
    <circle class="commit-leaf" cx="240" cy="580" r="6" fill="url(#leafGradient)" stroke="#16a34a" stroke-width="1.5"><title>6cf25eb: chore: update git tree visualisation</title></circle>
    <circle class="commit-leaf" cx="1080" cy="660" r="6" fill="url(#leafGradient)" stroke="#16a34a" stroke-width="1.5"><title>d7378ef: chore: update CHANGELOG for v0.1.0 (re-release)</title></circle>
    <circle class="commit-leaf" cx="120" cy="740" r="6" fill="url(#leafGradient)" stroke="#16a34a" stroke-width="1.5"><title>2dee3df: chore: update git tree visualisation</title></circle>
    <circle class="commit-leaf" cx="1200" cy="820" r="6" fill="url(#leafGradient)" stroke="#16a34a" stroke-width="1.5"><title>d292d06: chore: update git tree visualisation</title></circle>
    <circle class="commit-leaf" cx="0" cy="900" r="6" fill="url(#leafGradient)" stroke="#16a34a" stroke-width="1.5"><title>a8e2ae5: chore: update git tree visualisation</title></circle>
    <circle class="commit-leaf" cx="1320" cy="980" r="6" fill="url(#leafGradient)" stroke="#16a34a" stroke-width="1.5"><title>f7dd4fb: chore: update git tree visualisation</title></circle>
    <circle class="commit-leaf" cx="-120" cy="1060" r="6" fill="url(#leafGradient)" stroke="#16a34a" stroke-width="1.5"><title>9fd24e4: chore: update git tree visualisation</title></circle>
    <circle class="commit-leaf" cx="1440" cy="1140" r="6" fill="url(#leafGradient)" stroke="#16a34a" stroke-width="1.5"><title>987d074: chore: update CHANGELOG for v0.1.0 (re-release)</title></circle>
    <circle class="commit-leaf" cx="-240" cy="1220" r="6" fill="url(#leafGradient)" stroke="#16a34a" stroke-width="1.5"><title>e93567c: chore: update git tree visualisation</title></circle>
    <circle class="commit-leaf" cx="1560" cy="1300" r="6" fill="url(#leafGradient)" stroke="#16a34a" stroke-width="1.5"><title>f590e78: chore: update git tree visualisation</title></circle>
    <circle class="commit-leaf" cx="-360" cy="1380" r="6" fill="url(#leafGradient)" stroke="#16a34a" stroke-width="1.5"><title>2c61c9d: chore: update git tree visualisation</title></circle>
    <circle class="commit-leaf" cx="1680" cy="1460" r="10" fill="url(#mergeGradient)" stroke="#7c3aed" stroke-width="1.5"><title>1bdb43a: Merge pull request #2 from XAOSTECH:anglicise/20260401-021042</title></circle>
    <circle class="commit-leaf" cx="-480" cy="1540" r="6" fill="url(#leafGradient)" stroke="#16a34a" stroke-width="1.5"><title>79c842f: chore: convert American spellings to British English</title></circle>
    <circle class="commit-leaf" cx="1800" cy="1620" r="9" fill="url(#forkGradient)" stroke="#ea580c" stroke-width="1.5"><title>bd98d5e: chore: update CHANGELOG for v0.1.0</title></circle>
    <circle class="commit-leaf" cx="600" cy="1700" r="9" fill="url(#forkGradient)" stroke="#ea580c" stroke-width="1.5"><title>4e388a4: chore(dc-init): load workflows,actions</title></circle>
    <circle class="commit-leaf" cx="600" cy="1740" r="6" fill="url(#leafGradient)" stroke="#16a34a" stroke-width="1.5"><title>1f4fb23: chore(dc-init): update workflows + action</title></circle>
    <circle class="commit-leaf" cx="600" cy="1780" r="6" fill="url(#leafGradient)" stroke="#16a34a" stroke-width="1.5"><title>84a4f91: docs: complete README template</title></circle>
    <circle class="commit-leaf" cx="600" cy="1820" r="10" fill="url(#mergeGradient)" stroke="#7c3aed" stroke-width="1.5"><title>68f6c87: Merge pull request #1 from XAOSTECH:anglicise/20260301-015818\n\nchore: Convert American spellings to British English</title></circle>
    <circle class="commit-leaf" cx="-600" cy="1860" r="6" fill="url(#leafGradient)" stroke="#16a34a" stroke-width="1.5"><title>73c6099: chore: convert American spellings to British English</title></circle>
    <circle class="commit-leaf" cx="600" cy="1940" r="9" fill="url(#tagGradient)" stroke="#0284c7" stroke-width="1.5"><title>3aef13b: chore: update CHANGELOG for v0.0.1</title></circle>
    <circle class="commit-leaf" cx="600" cy="1980" r="6" fill="url(#leafGradient)" stroke="#16a34a" stroke-width="1.5"><title>abf9620: chore(readme/dir): add GTK referral + move GTK Themes</title></circle>
    <circle class="commit-leaf" cx="600" cy="2020" r="6" fill="url(#leafGradient)" stroke="#16a34a" stroke-width="1.5"><title>d26bde5: dc-init</title></circle>
    <circle class="commit-leaf" cx="600" cy="2060" r="6" fill="url(#leafGradient)" stroke="#16a34a" stroke-width="1.5"><title>d9f5174: Redesign with soft off-pink pastels: use pastel-generated colors, increase transparency, add comprehensive GNOME component styling</title></circle>
    <circle class="commit-leaf" cx="600" cy="2100" r="6" fill="url(#leafGradient)" stroke="#16a34a" stroke-width="1.5"><title>12bdeb6: init</title></circle>
  </g>
  
  <!-- Legend -->
  <g id="legend" transform="translate(20, 20)">
    <rect width="200" height="110" fill="white" stroke="#cbd5e1" stroke-width="1" rx="4"/>
    <circle cx="20" cy="25" r="5" fill="url(#leafGradient)" stroke="#16a34a"/>
    <text x="32" y="30" class="branch-label" font-size="12">Regular Commit</text>
    <circle cx="20" cy="50" r="6" fill="url(#mergeGradient)" stroke="#7c3aed"/>
    <text x="32" y="55" class="branch-label" font-size="12">Merge Commit</text>
    <circle cx="20" cy="75" r="6" fill="url(#forkGradient)" stroke="#ea580c"/>
    <text x="32" y="80" class="branch-label" font-size="12">Fork Point</text>
    <circle cx="20" cy="100" r="6" fill="url(#tagGradient)" stroke="#0284c7"/>
    <text x="32" y="105" class="branch-label" font-size="12">Tagged</text>
  </g>
  
  <!-- Repository info -->
  <g id="info" transform="translate(20, 2180)">
    <text x="0" y="0" class="branch-label" font-size="12" fill="#666">
      Repository: themes
    </text>
    <text x="0" y="20" class="branch-label" font-size="10" fill="#999">
      Generated: 2026-09-21 02:10:06 UTC
    </text>
  </g>
</svg>
